<svg xmlns="http://www.w3.org/2000/svg" xmlns:xlink="http://www.w3.org/1999/xlink" viewBox="0 0 80 96"><defs><style>.cls-1,.cls-10,.cls-2,.cls-3,.cls-4,.cls-5,.cls-6,.cls-7,.cls-8,.cls-9{fill:none;stroke-linecap:round;stroke-miterlimit:10;stroke-width:4px;}.cls-1{stroke:url(#名称未設定グラデーション_15);}.cls-2{stroke:url(#名称未設定グラデーション_15-2);}.cls-3{stroke:url(#名称未設定グラデーション_15-3);}.cls-4{stroke:url(#名称未設定グラデーション_15-4);}.cls-5{stroke:url(#名称未設定グラデーション_15-5);}.cls-6{stroke:url(#名称未設定グラデーション_15-6);}.cls-7{stroke:url(#名称未設定グラデーション_15-7);}.cls-8{stroke:url(#名称未設定グラデーション_15-8);}.cls-9{stroke:url(#名称未設定グラデーション_15-9);}.cls-10{stroke:url(#名称未設定グラデーション_15-10);}</style><linearGradient id="名称未設定グラデーション_15" x1="22.57" y1="7" x2="57.43" y2="7" gradientUnits="userSpaceOnUse"><stop offset="0" stop-color="#e1625d"/><stop offset="1" stop-color="#dd9841"/></linearGradient><linearGradient id="名称未設定グラデーション_15-2" x1="17" y1="18" x2="63" y2="18" xlink:href="#名称未設定グラデーション_15"/><linearGradient id="名称未設定グラデーション_15-3" x1="8" y1="53" x2="21" y2="53" xlink:href="#名称未設定グラデーション_15"/><linearGradient id="名称未設定グラデーション_15-4" x1="21.83" y1="86" x2="28.08" y2="86" xlink:href="#名称未設定グラデーション_15"/><linearGradient id="名称未設定グラデーション_15-5" x1="34.58" y1="53" x2="72" y2="53" xlink:href="#名称未設定グラデーション_15"/><linearGradient id="名称未設定グラデーション_15-6" x1="0" y1="53" x2="80" y2="53" xlink:href="#名称未設定グラデーション_15"/><linearGradient id="名称未設定グラデーション_15-7" x1="34" y1="11" x2="46" y2="11" xlink:href="#名称未設定グラデーション_15"/><linearGradient id="名称未設定グラデーション_15-8" x1="22" y1="52" x2="42" y2="52" xlink:href="#名称未設定グラデーション_15"/><linearGradient id="名称未設定グラデーション_15-9" x1="22" y1="62" x2="58" y2="62" xlink:href="#名称未設定グラデーション_15"/><linearGradient id="名称未設定グラデーション_15-10" x1="22" y1="72" x2="58" y2="72" xlink:href="#名称未設定グラデーション_15"/></defs><title>アセット 14</title><g id="レイヤー_2" data-name="レイヤー 2"><g id="clipboard"><path class="cls-1" d="M55.43,12A13.76,13.76,0,0,0,42.33,2H37.67a13.77,13.77,0,0,0-13.1,10"/><polyline class="cls-2" points="61 12 61 24 19 24 19 12"/><polyline class="cls-3" points="17.08 86 10 86 10 20 19 20"/><line class="cls-4" x1="26.08" y1="86" x2="23.83" y2="86"/><polyline class="cls-5" points="61 20 70 20 70 86 36.58 86"/><path class="cls-6" d="M55.43,12H74a4,4,0,0,1,4,4V90a4,4,0,0,1-4,4H6a4,4,0,0,1-4-4V16a4,4,0,0,1,4-4H24.57"/><line class="cls-7" x1="36" y1="11" x2="44" y2="11"/><line class="cls-8" x1="24" y1="52" x2="40" y2="52"/><line class="cls-9" x1="24" y1="62" x2="56" y2="62"/><line class="cls-10" x1="24" y1="72" x2="56" y2="72"/></g></g></svg>