<svg xmlns="http://www.w3.org/2000/svg" xmlns:xlink="http://www.w3.org/1999/xlink" viewBox="0 0 92 92"><defs><style>.cls-1,.cls-2,.cls-3{fill:none;stroke-linecap:round;stroke-miterlimit:10;stroke-width:4px;}.cls-1{stroke:url(#名称未設定グラデーション_15);}.cls-2{stroke:url(#名称未設定グラデーション_15-2);}.cls-3{stroke:url(#名称未設定グラデーション_15-3);}</style><linearGradient id="名称未設定グラデーション_15" x1="10.7" y1="15.46" x2="18.15" y2="15.46" gradientUnits="userSpaceOnUse"><stop offset="0" stop-color="#e1625d"/><stop offset="1" stop-color="#dd9841"/></linearGradient><linearGradient id="名称未設定グラデーション_15-2" x1="0" y1="46" x2="92" y2="46" xlink:href="#名称未設定グラデーション_15"/><linearGradient id="名称未設定グラデーション_15-3" x1="18" y1="46" x2="74" y2="46" xlink:href="#名称未設定グラデーション_15"/></defs><title>アセット 6</title><g id="レイヤー_2" data-name="レイヤー 2"><g id="cross"><path class="cls-1" d="M12.7,17.24a44.67,44.67,0,0,1,3.45-3.57"/><path class="cls-2" d="M25.05,7.3A44,44,0,1,1,8.65,22.73"/><path class="cls-3" d="M37,37V22a2,2,0,0,1,2-2H53a2,2,0,0,1,2,2V37H70a2,2,0,0,1,2,2V53a2,2,0,0,1-2,2H55V70a2,2,0,0,1-2,2H39a2,2,0,0,1-2-2V55H22a2,2,0,0,1-2-2V39a2,2,0,0,1,2-2Z"/></g></g></svg>