<svg xmlns="http://www.w3.org/2000/svg" xmlns:xlink="http://www.w3.org/1999/xlink" viewBox="0 0 94 96"><defs><style>.cls-1,.cls-2,.cls-3,.cls-4,.cls-5,.cls-6,.cls-7,.cls-8,.cls-9{fill:none;stroke-linecap:round;stroke-miterlimit:10;stroke-width:4px;}.cls-1{stroke:url(#名称未設定グラデーション_15);}.cls-2{stroke:url(#名称未設定グラデーション_15-2);}.cls-3{stroke:url(#名称未設定グラデーション_15-3);}.cls-4{stroke:url(#名称未設定グラデーション_15-4);}.cls-5{stroke:url(#名称未設定グラデーション_15-5);}.cls-6{stroke:url(#名称未設定グラデーション_15-6);}.cls-7{stroke:url(#名称未設定グラデーション_15-7);}.cls-8{stroke:url(#名称未設定グラデーション_15-8);}.cls-9{stroke:url(#名称未設定グラデーション_15-9);}</style><linearGradient id="名称未設定グラデーション_15" y1="38" x2="36.43" y2="38" gradientUnits="userSpaceOnUse"><stop offset="0" stop-color="#e1625d"/><stop offset="1" stop-color="#dd9841"/></linearGradient><linearGradient id="名称未設定グラデーション_15-2" x1="38.33" y1="49.54" x2="44.52" y2="49.54" xlink:href="#名称未設定グラデーション_15"/><linearGradient id="名称未設定グラデーション_15-3" x1="47.55" y1="34.02" x2="60" y2="34.02" xlink:href="#名称未設定グラデーション_15"/><linearGradient id="名称未設定グラデーション_15-4" x1="6" y1="9" x2="16" y2="9" xlink:href="#名称未設定グラデーション_15"/><linearGradient id="名称未設定グラデーション_15-5" x1="44" y1="9" x2="54" y2="9" xlink:href="#名称未設定グラデーション_15"/><linearGradient id="名称未設定グラデーション_15-6" x1="68" y1="39" x2="94" y2="39" xlink:href="#名称未設定グラデーション_15"/><linearGradient id="名称未設定グラデーション_15-7" x1="77" y1="39" x2="85" y2="39" xlink:href="#名称未設定グラデーション_15"/><linearGradient id="名称未設定グラデーション_15-8" x1="28" y1="72" x2="84" y2="72" xlink:href="#名称未設定グラデーション_15"/><linearGradient id="名称未設定グラデーション_15-9" y1="35.5" x2="60" y2="35.5" xlink:href="#名称未設定グラデーション_15"/></defs><title>アセット 12</title><g id="レイヤー_2" data-name="レイヤー 2"><g id="stethoscope"><path class="cls-1" d="M34.43,51.65A28,28,0,0,1,2,24"/><path class="cls-2" d="M42.52,49.05a23.93,23.93,0,0,1-2.19,1"/><path class="cls-3" d="M58,24a28,28,0,0,1-8.45,20"/><path class="cls-4" d="M11,16h0a3,3,0,0,1-3-3V5a3,3,0,0,1,3-3h0a3,3,0,0,1,3,3v8A3,3,0,0,1,11,16Z"/><path class="cls-5" d="M49,16h0a3,3,0,0,1-3-3V5a3,3,0,0,1,3-3h0a3,3,0,0,1,3,3v8A3,3,0,0,1,49,16Z"/><circle class="cls-6" cx="81" cy="39" r="11"/><circle class="cls-7" cx="81" cy="39" r="2"/><path class="cls-8" d="M30,62V86a8,8,0,0,0,16,0V78a10,10,0,0,1,20,0v8a8,8,0,0,0,16,0V50"/><path class="cls-9" d="M52,9h2a4,4,0,0,1,4,4V34A28,28,0,0,1,2,34V13A4,4,0,0,1,6,9H8"/></g></g></svg>